<mxfile host="app.diagrams.net" agent="Mozilla/5.0 (Windows NT 10.0; Win64; x64; rv:142.0) Gecko/20100101 Firefox/142.0" version="28.2.3">
  <diagram name="Page-1" id="jj9lm1_z95I_Og54XQMz">
    <mxGraphModel dx="1042" dy="535" grid="0" gridSize="10" guides="1" tooltips="1" connect="1" arrows="1" fold="1" page="1" pageScale="1" pageWidth="850" pageHeight="1100" background="light-dark(#FFFFFF,#FAFAFA)" math="0" shadow="0">
      <root>
        <mxCell id="0" />
        <mxCell id="1" parent="0" />
        <mxCell id="0c_Kru4zxau6hivpYgWE-29" value="" style="rounded=0;whiteSpace=wrap;html=1;fillColor=light-dark(#000000,#FFFFFF);strokeColor=light-dark(#000000,#000000);" vertex="1" parent="1">
          <mxGeometry x="300" y="98" width="250" height="220" as="geometry" />
        </mxCell>
        <mxCell id="0c_Kru4zxau6hivpYgWE-31" value="" style="rounded=0;whiteSpace=wrap;html=1;fillColor=light-dark(#000000,#FFFFFF);strokeColor=light-dark(#000000,#000000);" vertex="1" parent="1">
          <mxGeometry x="308" y="129" width="129" height="91" as="geometry" />
        </mxCell>
        <mxCell id="0c_Kru4zxau6hivpYgWE-24" value="&lt;span style=&quot;color: light-dark(rgb(0, 0, 0), rgb(0, 0, 0));&quot;&gt;straightened wet square towels&lt;/span&gt;" style="text;html=1;align=center;verticalAlign=middle;whiteSpace=wrap;rounded=0;" vertex="1" parent="1">
          <mxGeometry x="555" y="124" width="110" height="30" as="geometry" />
        </mxCell>
        <mxCell id="0c_Kru4zxau6hivpYgWE-25" value="&lt;div&gt;Crumpled wet square towels&lt;/div&gt;" style="text;html=1;align=center;verticalAlign=middle;whiteSpace=wrap;rounded=0;fontColor=light-dark(#000000,#000000);" vertex="1" parent="1">
          <mxGeometry x="194" y="128" width="110" height="30" as="geometry" />
        </mxCell>
        <mxCell id="0c_Kru4zxau6hivpYgWE-35" value="" style="edgeStyle=orthogonalEdgeStyle;rounded=0;orthogonalLoop=1;jettySize=auto;html=1;" edge="1" parent="1">
          <mxGeometry relative="1" as="geometry">
            <mxPoint x="403" y="164" as="sourcePoint" />
            <mxPoint x="409.5" y="164" as="targetPoint" />
          </mxGeometry>
        </mxCell>
        <mxCell id="0c_Kru4zxau6hivpYgWE-49" style="edgeStyle=orthogonalEdgeStyle;rounded=0;orthogonalLoop=1;jettySize=auto;html=1;shape=flexArrow;strokeColor=light-dark(#000000,#000000);fillColor=light-dark(#FFFFFF,#FFFFFF);exitX=0.5;exitY=0;exitDx=0;exitDy=0;entryX=0.037;entryY=0.492;entryDx=0;entryDy=0;entryPerimeter=0;" edge="1" parent="1" source="0c_Kru4zxau6hivpYgWE-32" target="0c_Kru4zxau6hivpYgWE-47">
          <mxGeometry relative="1" as="geometry">
            <mxPoint x="457" y="164" as="targetPoint" />
            <mxPoint x="349" y="163.5" as="sourcePoint" />
          </mxGeometry>
        </mxCell>
        <mxCell id="0c_Kru4zxau6hivpYgWE-32" value="" style="triangle;whiteSpace=wrap;html=1;rotation=90;fillColor=light-dark(#FFFFFF,#FFFFFF);strokeColor=light-dark(#000000,#000000);" vertex="1" parent="1">
          <mxGeometry x="314" y="144.5" width="37" height="39" as="geometry" />
        </mxCell>
        <mxCell id="0c_Kru4zxau6hivpYgWE-37" value="Camera" style="text;html=1;align=center;verticalAlign=middle;whiteSpace=wrap;rounded=0;fontColor=light-dark(#000000,#000000);" vertex="1" parent="1">
          <mxGeometry x="329" y="124" width="87" height="30" as="geometry" />
        </mxCell>
        <mxCell id="0c_Kru4zxau6hivpYgWE-40" style="edgeStyle=orthogonalEdgeStyle;rounded=0;orthogonalLoop=1;jettySize=auto;html=1;entryX=0.5;entryY=1;entryDx=0;entryDy=0;shape=flexArrow;strokeColor=light-dark(#000000,#000000);fillColor=light-dark(#FFFFFF,#FFFFFF);" edge="1" parent="1" target="0c_Kru4zxau6hivpYgWE-32">
          <mxGeometry relative="1" as="geometry">
            <mxPoint x="48.39996337890625" y="164" as="targetPoint" />
            <mxPoint x="203" y="164" as="sourcePoint" />
          </mxGeometry>
        </mxCell>
        <mxCell id="0c_Kru4zxau6hivpYgWE-44" style="rounded=0;orthogonalLoop=1;jettySize=auto;html=1;strokeColor=light-dark(#000000,#000000);entryX=0.25;entryY=0;entryDx=0;entryDy=0;" edge="1" parent="1" target="0c_Kru4zxau6hivpYgWE-51">
          <mxGeometry relative="1" as="geometry">
            <mxPoint x="373" y="201" as="sourcePoint" />
            <mxPoint x="373" y="252" as="targetPoint" />
          </mxGeometry>
        </mxCell>
        <mxCell id="0c_Kru4zxau6hivpYgWE-43" value="" style="sketch=0;outlineConnect=0;fontColor=#232F3E;gradientColor=none;fillColor=light-dark(#232F3D,#000000);strokeColor=none;dashed=0;verticalLabelPosition=bottom;verticalAlign=top;align=center;html=1;fontSize=12;fontStyle=0;aspect=fixed;pointerEvents=1;shape=mxgraph.aws4.camera2;" vertex="1" parent="1">
          <mxGeometry x="356.5" y="174.55999999999995" width="32" height="25.44" as="geometry" />
        </mxCell>
        <mxCell id="0c_Kru4zxau6hivpYgWE-54" style="edgeStyle=orthogonalEdgeStyle;rounded=0;orthogonalLoop=1;jettySize=auto;html=1;shape=flexArrow;strokeColor=light-dark(#000000,#000000);fillColor=light-dark(#FFFFFF,#FFFFFF);" edge="1" parent="1" source="0c_Kru4zxau6hivpYgWE-47">
          <mxGeometry relative="1" as="geometry">
            <mxPoint x="674" y="164" as="targetPoint" />
          </mxGeometry>
        </mxCell>
        <mxCell id="0c_Kru4zxau6hivpYgWE-47" value="" style="image;aspect=fixed;html=1;points=[];align=center;fontSize=12;image=img/lib/azure2/other/Defender_Industrial_Robot.svg;" vertex="1" parent="1">
          <mxGeometry x="480" y="128" width="54.08" height="72" as="geometry" />
        </mxCell>
        <mxCell id="0c_Kru4zxau6hivpYgWE-51" value="" style="shape=image;html=1;verticalAlign=top;verticalLabelPosition=bottom;labelBackgroundColor=#ffffff;imageAspect=0;aspect=fixed;image=https://icons.diagrams.net/icon-cache1/Computer_Hardware_Line_vol_1-2897/cpu__chip__microchip__processor__computer__pc__technology-1457.svg" vertex="1" parent="1">
          <mxGeometry x="402" y="249" width="52" height="52" as="geometry" />
        </mxCell>
        <mxCell id="0c_Kru4zxau6hivpYgWE-52" style="rounded=0;orthogonalLoop=1;jettySize=auto;html=1;strokeColor=light-dark(#000000,#000000);exitX=0.75;exitY=0;exitDx=0;exitDy=0;" edge="1" parent="1" source="0c_Kru4zxau6hivpYgWE-51">
          <mxGeometry relative="1" as="geometry">
            <mxPoint x="486" y="203" as="targetPoint" />
          </mxGeometry>
        </mxCell>
        <mxCell id="0c_Kru4zxau6hivpYgWE-53" value="Controller" style="text;html=1;align=center;verticalAlign=middle;whiteSpace=wrap;rounded=0;fontColor=light-dark(#000000,#000000);" vertex="1" parent="1">
          <mxGeometry x="373" y="292" width="110" height="28" as="geometry" />
        </mxCell>
        <mxCell id="0c_Kru4zxau6hivpYgWE-55" value="&lt;div&gt;Position, corners&lt;/div&gt;" style="text;html=1;align=center;verticalAlign=middle;whiteSpace=wrap;rounded=0;fontColor=light-dark(#000000,#000000);" vertex="1" parent="1">
          <mxGeometry x="336.5" y="221" width="72" height="28" as="geometry" />
        </mxCell>
        <mxCell id="0c_Kru4zxau6hivpYgWE-56" style="edgeStyle=orthogonalEdgeStyle;rounded=0;orthogonalLoop=1;jettySize=auto;html=1;exitX=0.5;exitY=1;exitDx=0;exitDy=0;" edge="1" parent="1" source="0c_Kru4zxau6hivpYgWE-55" target="0c_Kru4zxau6hivpYgWE-55">
          <mxGeometry relative="1" as="geometry" />
        </mxCell>
        <mxCell id="0c_Kru4zxau6hivpYgWE-57" value="CoÃ¶rdinates" style="text;html=1;align=center;verticalAlign=middle;whiteSpace=wrap;rounded=0;fontColor=light-dark(#000000,#000000);" vertex="1" parent="1">
          <mxGeometry x="456" y="224" width="72" height="28" as="geometry" />
        </mxCell>
        <mxCell id="0c_Kru4zxau6hivpYgWE-58" value="minimum: 500-700/hour" style="text;html=1;align=center;verticalAlign=middle;whiteSpace=wrap;rounded=0;fontColor=light-dark(#000000,#000000);" vertex="1" parent="1">
          <mxGeometry x="560" y="170" width="97" height="30" as="geometry" />
        </mxCell>
        <mxCell id="0c_Kru4zxau6hivpYgWE-59" value="Towel straightening machine" style="text;html=1;align=center;verticalAlign=middle;whiteSpace=wrap;rounded=0;fontColor=light-dark(#000000,#000000);" vertex="1" parent="1">
          <mxGeometry x="351" y="94" width="160" height="30" as="geometry" />
        </mxCell>
      </root>
    </mxGraphModel>
  </diagram>
</mxfile>
